<svg width="1281" height="762" viewBox="0 0 1281 762" fill="none" xmlns="http://www.w3.org/2000/svg">
<g filter="url(#filter0_d_109_24)">
<path d="M1088.83 163.311L1255 23.4702C1255 23.4702 380.32 -22.8867 269.539 49.2077C158.757 121.302 79.3909 364.065 269.539 430.125C459.686 496.185 797.253 397.345 891.5 452C985.747 506.655 975.331 529.643 912.5 578.545C849.669 627.446 589.483 578.545 589.483 578.545H174.465L24 738.118C24 738.118 843.289 763.193 1049.14 714.096C1255 665 1168.19 347.764 1049.14 303.152C930.095 258.541 281.113 347.764 380.32 220.792C479.528 93.8197 681.25 163.311 681.25 163.311H1088.83Z" stroke="url(#paint0_linear_109_24)" stroke-width="17" shape-rendering="crispEdges"/>
</g>
<defs>
<filter id="filter0_d_109_24" x="0.851318" y="0.299683" width="1280.08" height="760.721" filterUnits="userSpaceOnUse" color-interpolation-filters="sRGB">
<feFlood flood-opacity="0" result="BackgroundImageFix"/>
<feColorMatrix in="SourceAlpha" type="matrix" values="0 0 0 0 0 0 0 0 0 0 0 0 0 0 0 0 0 0 127 0" result="hardAlpha"/>
<feOffset dy="4"/>
<feGaussianBlur stdDeviation="2"/>
<feComposite in2="hardAlpha" operator="out"/>
<feColorMatrix type="matrix" values="0 0 0 0 0 0 0 0 0 0 0 0 0 0 0 0 0 0 0.25 0"/>
<feBlend mode="normal" in2="BackgroundImageFix" result="effect1_dropShadow_109_24"/>
<feBlend mode="normal" in="SourceGraphic" in2="effect1_dropShadow_109_24" result="shape"/>
</filter>
<linearGradient id="paint0_linear_109_24" x1="639.5" y1="760" x2="639.5" y2="-1.00002" gradientUnits="userSpaceOnUse">
<stop stop-color="#007AFF"/>
<stop offset="1" stop-color="#004999"/>
</linearGradient>
</defs>
</svg>
